<svg width="512" height="512" viewBox="0 0 24 24" xmlns="http://www.w3.org/2000/svg">
  <!-- Tło (opcjonalne) -->
  <rect width="24" height="24" rx="12" fill="#0A0A0F"/>

  <!-- Literka "O" (cyan) -->
  <path d="M12 2C6.48 2 2 6.48 2 12s4.48 10 10 10 10-4.48 10-10S17.52 2 12 2zm0 18c-4.41 0-8-3.59-8-8s3.59-8 8-8 8 3.59 8 8-3.59 8-8 8z"
        fill="none" stroke="#00FFFF" stroke-width="1.5"/>

  <!-- Rower w środku "O" (magenta) -->
  <path d="M8 12c0-1.1 0.9-2 2-2s2 0.9 2 2-0.9 2-2 2-2-0.9-2-2zm0-2c1.1 0 2 0.9 2 2s-0.9 2-2 2-2-0.9-2-2z"
        fill="#FF00FF"/>
</svg>